# Blender 3.6.2
# www.blender.org
mtllib cube.mtl
o Plane
v -0.500000 -0.500000 0.000000
v 0.500000 -0.500000 0.000000
v -0.500000 0.500000 0.000000
v 0.500000 0.500000 0.000000
v 0.125000 0.125000 0.250000
v 0.125000 0.125000 0.000000
v 0.125000 -0.125000 0.250000
v 0.125000 -0.125000 0.000000
v -0.125000 0.125000 0.250000
v -0.125000 0.125000 0.000000
v -0.125000 -0.125000 0.250000
v -0.125000 -0.125000 0.000000
vn -0.0000 -0.0000 1.0000
vn -0.0000 -1.0000 -0.0000
vn -1.0000 -0.0000 -0.0000
vn -0.0000 -0.0000 -1.0000
vn 1.0000 -0.0000 -0.0000
vn -0.0000 1.0000 -0.0000
vt 0.001405 0.001405
vt 0.796910 0.001405
vt 0.796910 0.796910
vt 0.001405 0.796910
vt 0.200281 0.998595
vt 0.001405 0.998595
vt 0.001405 0.799719
vt 0.200281 0.799719
vt 0.504214 0.998595
vt 0.404776 0.998595
vt 0.404776 0.799719
vt 0.504214 0.799719
vt 0.606461 0.998595
vt 0.507023 0.998595
vt 0.507023 0.799719
vt 0.606461 0.799719
vt 0.401966 0.998595
vt 0.203090 0.998595
vt 0.203090 0.799719
vt 0.401966 0.799719
vt 0.708709 0.998595
vt 0.609270 0.998595
vt 0.609270 0.799719
vt 0.708709 0.799719
vt 0.998595 0.001405
vt 0.998595 0.100843
vt 0.799719 0.100843
vt 0.799719 0.001405
s 0
usemtl Material
f 1/1/1 2/2/1 4/3/1 3/4/1
f 5/5/1 9/6/1 11/7/1 7/8/1
f 8/9/2 7/10/2 11/11/2 12/12/2
f 12/13/3 11/14/3 9/15/3 10/16/3
f 10/17/4 6/18/4 8/19/4 12/20/4
f 6/21/5 5/22/5 7/23/5 8/24/5
f 10/25/6 9/26/6 5/27/6 6/28/6
